{
	"asset":{
		"generator":"Khronos glTF Blender I/O v4.3.47",
		"version":"2.0"
	},
	"scene":0,
	"scenes":[
		{
			"name":"Scene",
			"nodes":[
				0
			]
		}
	],
	"nodes":[
		{
			"mesh":0,
			"name":"Sphere"
		}
	],
	"meshes":[
		{
			"name":"Sphere",
			"primitives":[
				{
					"attributes":{
						"POSITION":0,
						"NORMAL":1,
						"TEXCOORD_0":2
					},
					"indices":3
				}
			]
		}
	],
	"accessors":[
		{
			"bufferView":0,
			"componentType":5126,
			"count":382,
			"max":[
				0.06136215478181839,
				0.061362165957689285,
				0.029432276263833046
			],
			"min":[
				-0.06136211380362511,
				-0.0613621287047863,
				-0.08657073974609375
			],
			"type":"VEC3"
		},
		{
			"bufferView":1,
			"componentType":5126,
			"count":382,
			"type":"VEC3"
		},
		{
			"bufferView":2,
			"componentType":5126,
			"count":382,
			"type":"VEC2"
		},
		{
			"bufferView":3,
			"componentType":5123,
			"count":1632,
			"type":"SCALAR"
		}
	],
	"bufferViews":[
		{
			"buffer":0,
			"byteLength":4584,
			"byteOffset":0,
			"target":34962
		},
		{
			"buffer":0,
			"byteLength":4584,
			"byteOffset":4584,
			"target":34962
		},
		{
			"buffer":0,
			"byteLength":3056,
			"byteOffset":9168,
			"target":34962
		},
		{
			"buffer":0,
			"byteLength":3264,
			"byteOffset":12224,
			"target":34963
		}
	],
	"buffers":[
		{
			"byteLength":15488,
			"uri":"Light.bin"
		}
	]
}
