{
	"asset":{
		"generator":"Khronos glTF Blender I/O v4.3.47",
		"version":"2.0"
	},
	"scene":0,
	"scenes":[
		{
			"name":"Scene",
			"nodes":[
				0
			]
		}
	],
	"nodes":[
		{
			"mesh":0,
			"name":"TentBody.001"
		}
	],
	"meshes":[
		{
			"name":"model_0.009",
			"primitives":[
				{
					"attributes":{
						"POSITION":0,
						"NORMAL":1,
						"TEXCOORD_0":2
					},
					"indices":3
				},
				{
					"attributes":{
						"POSITION":4,
						"NORMAL":5,
						"TEXCOORD_0":6
					},
					"indices":7
				}
			]
		}
	],
	"accessors":[
		{
			"bufferView":0,
			"componentType":5126,
			"count":2764,
			"max":[
				0.24117158353328705,
				0.1956169605255127,
				0.16894517838954926
			],
			"min":[
				-0.2412485033273697,
				-0.0006207847036421299,
				-0.16895152628421783
			],
			"type":"VEC3"
		},
		{
			"bufferView":1,
			"componentType":5126,
			"count":2764,
			"type":"VEC3"
		},
		{
			"bufferView":2,
			"componentType":5126,
			"count":2764,
			"type":"VEC2"
		},
		{
			"bufferView":3,
			"componentType":5123,
			"count":13764,
			"type":"SCALAR"
		},
		{
			"bufferView":4,
			"componentType":5126,
			"count":8040,
			"max":[
				0.26052314043045044,
				0.2011687010526657,
				0.18370848894119263
			],
			"min":[
				-0.26052555441856384,
				-0.010162928141653538,
				-0.183708056807518
			],
			"type":"VEC3"
		},
		{
			"bufferView":5,
			"componentType":5126,
			"count":8040,
			"type":"VEC3"
		},
		{
			"bufferView":6,
			"componentType":5126,
			"count":8040,
			"type":"VEC2"
		},
		{
			"bufferView":7,
			"componentType":5123,
			"count":36486,
			"type":"SCALAR"
		}
	],
	"bufferViews":[
		{
			"buffer":0,
			"byteLength":33168,
			"byteOffset":0,
			"target":34962
		},
		{
			"buffer":0,
			"byteLength":33168,
			"byteOffset":33168,
			"target":34962
		},
		{
			"buffer":0,
			"byteLength":22112,
			"byteOffset":66336,
			"target":34962
		},
		{
			"buffer":0,
			"byteLength":27528,
			"byteOffset":88448,
			"target":34963
		},
		{
			"buffer":0,
			"byteLength":96480,
			"byteOffset":115976,
			"target":34962
		},
		{
			"buffer":0,
			"byteLength":96480,
			"byteOffset":212456,
			"target":34962
		},
		{
			"buffer":0,
			"byteLength":64320,
			"byteOffset":308936,
			"target":34962
		},
		{
			"buffer":0,
			"byteLength":72972,
			"byteOffset":373256,
			"target":34963
		}
	],
	"buffers":[
		{
			"byteLength":446228,
			"uri":"SceneForRednerDemo.bin"
		}
	]
}
