# Blender 4.3.0
# www.blender.org
mtllib box.mtl
o Cube
v -0.915167 1.000000 0.833080
v -1.000000 0.915167 0.844249
v -0.957584 0.988635 0.838665
v -0.988635 0.957584 0.842753
v -0.833080 1.000000 0.915167
v -0.844249 0.915167 1.000000
v -0.838665 0.988635 0.957584
v -0.842753 0.957584 0.988635
v -0.903075 1.000000 0.878212
v -0.979133 0.915167 0.922125
v -0.941104 0.988635 0.900168
v -0.968943 0.957584 0.916241
v -0.878212 1.000000 0.903075
v -0.922125 0.915167 0.979133
v -0.900168 0.988635 0.941104
v -0.916241 0.957584 0.968943
v -0.833080 1.000000 -0.915167
v -0.844249 0.915167 -1.000000
v -0.838665 0.988635 -0.957584
v -0.842753 0.957584 -0.988635
v -0.915167 1.000000 -0.833080
v -1.000000 0.915167 -0.844249
v -0.957584 0.988635 -0.838665
v -0.988635 0.957584 -0.842753
v -0.878212 1.000000 -0.903075
v -0.922125 0.915167 -0.979133
v -0.900168 0.988635 -0.941104
v -0.916241 0.957584 -0.968943
v -0.903075 1.000000 -0.878212
v -0.979133 0.915167 -0.922125
v -0.941104 0.988635 -0.900168
v -0.968943 0.957584 -0.916241
v 0.833080 1.000000 0.915167
v 0.844249 0.915167 1.000000
v 0.838665 0.988635 0.957584
v 0.842753 0.957584 0.988635
v 0.915167 1.000000 0.833080
v 1.000000 0.915167 0.844249
v 0.957584 0.988635 0.838665
v 0.988635 0.957584 0.842753
v 0.878212 1.000000 0.903075
v 0.922125 0.915167 0.979133
v 0.900168 0.988635 0.941104
v 0.916241 0.957584 0.968943
v 0.903075 1.000000 0.878212
v 0.979133 0.915167 0.922125
v 0.941104 0.988635 0.900168
v 0.968943 0.957584 0.916241
v 0.915167 1.000000 -0.833080
v 1.000000 0.915167 -0.844249
v 0.957584 0.988635 -0.838665
v 0.988635 0.957584 -0.842753
v 0.833080 1.000000 -0.915167
v 0.844249 0.915167 -1.000000
v 0.838665 0.988635 -0.957584
v 0.842753 0.957584 -0.988635
v 0.903075 1.000000 -0.878212
v 0.979133 0.915167 -0.922125
v 0.941104 0.988635 -0.900168
v 0.968943 0.957584 -0.916241
v 0.878212 1.000000 -0.903075
v 0.922125 0.915167 -0.979133
v 0.900168 0.988635 -0.941104
v 0.916241 0.957584 -0.968943
v -0.831227 -1.000000 0.901086
v -0.844249 -0.901086 1.000000
v -0.837738 -0.986748 0.950543
v -0.842504 -0.950543 0.986748
v -1.000000 -0.901086 0.844249
v -0.901086 -1.000000 0.831227
v -0.986748 -0.950543 0.842504
v -0.950543 -0.986748 0.837738
v -0.922125 -0.901086 0.979133
v -0.870923 -1.000000 0.890450
v -0.915265 -0.950543 0.967252
v -0.896524 -0.986748 0.934792
v -0.979133 -0.901086 0.922125
v -0.890450 -1.000000 0.870923
v -0.967252 -0.950543 0.915265
v -0.934792 -0.986748 0.896524
v -0.901086 -1.000000 -0.831227
v -1.000000 -0.901086 -0.844249
v -0.950543 -0.986748 -0.837738
v -0.986748 -0.950543 -0.842504
v -0.844249 -0.901086 -1.000000
v -0.831227 -1.000000 -0.901086
v -0.842504 -0.950543 -0.986748
v -0.837738 -0.986748 -0.950543
v -0.890450 -1.000000 -0.870923
v -0.979133 -0.901086 -0.922125
v -0.934792 -0.986748 -0.896524
v -0.967252 -0.950543 -0.915265
v -0.870923 -1.000000 -0.890450
v -0.922125 -0.901086 -0.979133
v -0.896524 -0.986748 -0.934792
v -0.915265 -0.950543 -0.967252
v 0.901086 -1.000000 0.831227
v 1.000000 -0.901086 0.844249
v 0.950543 -0.986748 0.837738
v 0.986748 -0.950543 0.842504
v 0.844249 -0.901086 1.000000
v 0.831227 -1.000000 0.901086
v 0.842504 -0.950543 0.986748
v 0.837738 -0.986748 0.950543
v 0.890450 -1.000000 0.870923
v 0.979133 -0.901086 0.922125
v 0.934792 -0.986748 0.896524
v 0.967252 -0.950543 0.915265
v 0.870923 -1.000000 0.890450
v 0.922125 -0.901086 0.979133
v 0.896524 -0.986748 0.934792
v 0.915265 -0.950543 0.967252
v 0.831227 -1.000000 -0.901086
v 0.844249 -0.901086 -1.000000
v 0.837738 -0.986748 -0.950543
v 0.842504 -0.950543 -0.986748
v 1.000000 -0.901086 -0.844249
v 0.901086 -1.000000 -0.831227
v 0.986748 -0.950543 -0.842504
v 0.950543 -0.986748 -0.837738
v 0.870923 -1.000000 -0.890450
v 0.922125 -0.901086 -0.979133
v 0.896524 -0.986748 -0.934792
v 0.915265 -0.950543 -0.967252
v 0.890450 -1.000000 -0.870923
v 0.979133 -0.901086 -0.922125
v 0.934792 -0.986748 -0.896524
v 0.967252 -0.950543 -0.915265
vn -0.1388 0.9901 0.0183
vn -0.9830 0.1302 0.1294
vn -0.5086 0.8584 0.0670
vn -0.8622 0.4936 0.1135
vn -0.0183 0.9901 0.1388
vn -0.1294 0.1302 0.9830
vn -0.0670 0.8584 0.5086
vn -0.1135 0.4936 0.8622
vn -0.1272 0.9892 0.0734
vn -0.8584 0.1320 0.4956
vn -0.4500 0.8544 0.2598
vn -0.7534 0.4931 0.4350
vn -0.0734 0.9892 0.1272
vn -0.4956 0.1320 0.8584
vn -0.2598 0.8544 0.4500
vn -0.4350 0.4931 0.7534
vn -0.0183 0.9901 -0.1388
vn -0.1294 0.1302 -0.9830
vn -0.0670 0.8584 -0.5086
vn -0.1135 0.4936 -0.8622
vn -0.1388 0.9901 -0.0183
vn -0.9830 0.1302 -0.1294
vn -0.5086 0.8584 -0.0670
vn -0.8622 0.4936 -0.1135
vn -0.0734 0.9892 -0.1272
vn -0.4956 0.1320 -0.8584
vn -0.2598 0.8544 -0.4500
vn -0.4350 0.4931 -0.7534
vn -0.1272 0.9892 -0.0734
vn -0.8584 0.1320 -0.4956
vn -0.4500 0.8544 -0.2598
vn -0.7534 0.4931 -0.4350
vn 0.0183 0.9901 0.1388
vn 0.1294 0.1302 0.9830
vn 0.0670 0.8584 0.5086
vn 0.1135 0.4936 0.8622
vn 0.1388 0.9901 0.0183
vn 0.9830 0.1302 0.1294
vn 0.5086 0.8584 0.0670
vn 0.8622 0.4936 0.1135
vn 0.0734 0.9892 0.1272
vn 0.4956 0.1320 0.8584
vn 0.2598 0.8544 0.4500
vn 0.4350 0.4931 0.7534
vn 0.1272 0.9892 0.0734
vn 0.8584 0.1320 0.4956
vn 0.4500 0.8544 0.2598
vn 0.7534 0.4931 0.4350
vn 0.1388 0.9901 -0.0183
vn 0.9830 0.1302 -0.1294
vn 0.5086 0.8584 -0.0670
vn 0.8622 0.4936 -0.1135
vn 0.0183 0.9901 -0.1388
vn 0.1294 0.1302 -0.9830
vn 0.0670 0.8584 -0.5086
vn 0.1135 0.4936 -0.8622
vn 0.1272 0.9892 -0.0734
vn 0.8584 0.1320 -0.4956
vn 0.4500 0.8544 -0.2598
vn 0.7534 0.4931 -0.4350
vn 0.0734 0.9892 -0.1272
vn 0.4956 0.1320 -0.8584
vn 0.2598 0.8544 -0.4500
vn 0.4350 0.4931 -0.7534
vn -0.0183 -0.9901 0.1388
vn -0.1294 -0.1302 0.9830
vn -0.0670 -0.8584 0.5086
vn -0.1135 -0.4936 0.8622
vn -0.9830 -0.1302 0.1294
vn -0.1388 -0.9901 0.0183
vn -0.8622 -0.4936 0.1135
vn -0.5086 -0.8584 0.0670
vn -0.4956 -0.1320 0.8584
vn -0.0734 -0.9892 0.1272
vn -0.4350 -0.4931 0.7534
vn -0.2598 -0.8544 0.4500
vn -0.8584 -0.1320 0.4956
vn -0.1272 -0.9892 0.0734
vn -0.7534 -0.4931 0.4350
vn -0.4500 -0.8544 0.2598
vn -0.1388 -0.9901 -0.0183
vn -0.9830 -0.1302 -0.1294
vn -0.5086 -0.8584 -0.0670
vn -0.8622 -0.4936 -0.1135
vn -0.1294 -0.1302 -0.9830
vn -0.0183 -0.9901 -0.1388
vn -0.1135 -0.4936 -0.8622
vn -0.0670 -0.8584 -0.5086
vn -0.1272 -0.9892 -0.0734
vn -0.8584 -0.1320 -0.4956
vn -0.4500 -0.8544 -0.2598
vn -0.7534 -0.4931 -0.4350
vn -0.0734 -0.9892 -0.1272
vn -0.4956 -0.1320 -0.8584
vn -0.2598 -0.8544 -0.4500
vn -0.4350 -0.4931 -0.7534
vn 0.1388 -0.9901 0.0183
vn 0.9830 -0.1302 0.1294
vn 0.5086 -0.8584 0.0670
vn 0.8622 -0.4936 0.1135
vn 0.1294 -0.1302 0.9830
vn 0.0183 -0.9901 0.1388
vn 0.1135 -0.4936 0.8622
vn 0.0670 -0.8584 0.5086
vn 0.1272 -0.9892 0.0734
vn 0.8584 -0.1320 0.4956
vn 0.4500 -0.8544 0.2598
vn 0.7534 -0.4931 0.4350
vn 0.0734 -0.9892 0.1272
vn 0.4956 -0.1320 0.8584
vn 0.2598 -0.8544 0.4500
vn 0.4350 -0.4931 0.7534
vn 0.0183 -0.9901 -0.1388
vn 0.1294 -0.1302 -0.9830
vn 0.0670 -0.8584 -0.5086
vn 0.1135 -0.4936 -0.8622
vn 0.9830 -0.1302 -0.1294
vn 0.1388 -0.9901 -0.0183
vn 0.8622 -0.4936 -0.1135
vn 0.5086 -0.8584 -0.0670
vn 0.0734 -0.9892 -0.1272
vn 0.4956 -0.1320 -0.8584
vn 0.2598 -0.8544 -0.4500
vn 0.4350 -0.4931 -0.7534
vn 0.1272 -0.9892 -0.0734
vn 0.8584 -0.1320 -0.4956
vn 0.4500 -0.8544 -0.2598
vn 0.7534 -0.4931 -0.4350
vt 0.387364 0.240266
vt 0.614396 0.230531
vt 0.614396 0.240266
vt 0.387364 0.490266
vt 0.614396 0.480531
vt 0.614396 0.490266
vt 0.614396 0.009734
vt 0.387364 0.019469
vt 0.387364 0.009734
vt 0.864396 0.520865
vt 0.854135 0.739396
vt 0.635604 0.729135
vt 0.387364 0.269469
vt 0.614396 0.259734
vt 0.614396 0.269469
vt 0.614396 0.980531
vt 0.387364 1.000000
vt 0.387364 0.980531
vt 0.614396 0.269469
vt 0.387364 0.480531
vt 0.614396 0.000000
vt 0.387364 0.000000
vt 0.387364 0.259734
vt 0.614396 0.240266
vt 0.614396 0.259734
vt 0.387364 0.759734
vt 0.614396 0.740266
vt 0.614396 0.759734
vt 0.387364 0.740266
vt 0.614396 0.730531
vt 0.614396 0.740266
vt 0.387364 0.519469
vt 0.614396 0.509734
vt 0.614396 0.519469
vt 0.614396 0.519469
vt 0.387364 0.730531
vt 0.387364 0.509734
vt 0.614396 0.509734
vt 0.387364 0.769469
vt 0.614396 0.759734
vt 0.614396 0.769469
vt 0.614396 0.769469
vt 0.859777 0.737884
vt 0.854833 0.744698
vt 0.862521 0.742638
vt 0.855712 0.749952
vt 0.625000 0.999265
vt 0.625000 0.980892
vt 0.867638 0.737521
vt 0.865535 0.747122
vt 0.625000 0.009367
vt 0.625000 0.000368
vt 0.862884 0.734776
vt 0.869698 0.729833
vt 0.874952 0.730712
vt 0.872490 0.739898
vt 0.625000 0.010102
vt 0.614396 0.019469
vt 0.859777 0.512116
vt 0.854833 0.505302
vt 0.862521 0.507362
vt 0.855712 0.500048
vt 0.864898 0.502510
vt 0.625000 0.260102
vt 0.862884 0.515224
vt 0.867638 0.512479
vt 0.872123 0.509465
vt 0.625000 0.258999
vt 0.625000 0.241001
vt 0.869698 0.520167
vt 0.874952 0.519288
vt 0.625000 0.239898
vt 0.625000 0.230712
vt 0.637116 0.515224
vt 0.630302 0.520167
vt 0.632362 0.512479
vt 0.619698 0.519472
vt 0.619698 0.510102
vt 0.640224 0.512116
vt 0.637479 0.507362
vt 0.634465 0.502877
vt 0.625000 0.508999
vt 0.625000 0.491001
vt 0.645167 0.505302
vt 0.645865 0.510604
vt 0.644288 0.500048
vt 0.625000 0.489898
vt 0.625000 0.480712
vt 0.640224 0.737884
vt 0.645167 0.744698
vt 0.637479 0.742638
vt 0.644288 0.749952
vt 0.635102 0.747490
vt 0.625000 0.760102
vt 0.637116 0.734776
vt 0.632362 0.737521
vt 0.627877 0.740535
vt 0.625000 0.758999
vt 0.625000 0.741001
vt 0.630302 0.729833
vt 0.619698 0.730528
vt 0.619698 0.739898
vt 0.864396 0.729135
vt 0.875000 0.730344
vt 0.625000 0.230344
vt 0.614396 0.019469
vt 0.625000 0.019656
vt 0.645865 0.739396
vt 0.644656 0.750000
vt 0.625000 0.980344
vt 0.625000 0.769656
vt 0.625000 0.480344
vt 0.614396 0.480531
vt 0.855344 0.500000
vt 0.644656 0.500000
vt 0.387364 0.230531
vt 0.141135 0.736306
vt 0.145283 0.743818
vt 0.137935 0.741849
vt 0.144258 0.749944
vt 0.135163 0.747506
vt 0.375000 0.999143
vt 0.133151 0.737065
vt 0.138694 0.733865
vt 0.134421 0.747078
vt 0.127922 0.740579
vt 0.375000 0.000429
vt 0.375000 0.009306
vt 0.131182 0.729717
vt 0.137364 0.728903
vt 0.125056 0.730742
vt 0.375000 0.010163
vt 0.375000 0.019258
vt 0.141135 0.513694
vt 0.145283 0.506182
vt 0.146097 0.512364
vt 0.137935 0.508151
vt 0.144258 0.500056
vt 0.375000 0.260163
vt 0.375000 0.269258
vt 0.138694 0.516135
vt 0.127922 0.509421
vt 0.134421 0.502922
vt 0.375000 0.241123
vt 0.375000 0.258877
vt 0.131182 0.520283
vt 0.133151 0.512935
vt 0.125056 0.519258
vt 0.127493 0.510163
vt 0.375000 0.239837
vt 0.387364 0.230531
vt 0.361306 0.516135
vt 0.368818 0.520283
vt 0.362636 0.521097
vt 0.366849 0.512935
vt 0.381182 0.519473
vt 0.381182 0.510163
vt 0.358865 0.513694
vt 0.365579 0.502922
vt 0.372078 0.509421
vt 0.375000 0.491123
vt 0.375000 0.508877
vt 0.354717 0.506182
vt 0.362065 0.508151
vt 0.355742 0.500056
vt 0.364837 0.502493
vt 0.375000 0.489837
vt 0.358865 0.736306
vt 0.354717 0.743818
vt 0.353903 0.737636
vt 0.362065 0.741849
vt 0.355742 0.749944
vt 0.375000 0.760163
vt 0.375000 0.769258
vt 0.361306 0.733865
vt 0.372078 0.740579
vt 0.365579 0.747078
vt 0.375000 0.741123
vt 0.375000 0.758877
vt 0.368818 0.729717
vt 0.366849 0.737065
vt 0.381182 0.730527
vt 0.381182 0.739837
vt 0.375000 0.019687
vt 0.125000 0.519687
vt 0.125000 0.730313
vt 0.375000 0.269687
vt 0.355313 0.500000
vt 0.144687 0.500000
vt 0.375000 0.769687
vt 0.144687 0.750000
vt 0.355313 0.750000
vt 0.635604 0.520865
vt 0.854135 0.510604
vt 0.614396 1.000000
vt 0.614396 0.009734
vt 0.864898 0.747490
vt 0.872123 0.740535
vt 0.625000 0.019288
vt 0.625000 0.269288
vt 0.865535 0.502877
vt 0.872490 0.510102
vt 0.627877 0.509465
vt 0.635102 0.502510
vt 0.625000 0.769288
vt 0.634465 0.747122
vt 0.875000 0.519656
vt 0.614396 0.230531
vt 0.855344 0.750000
vt 0.625000 0.269656
vt 0.146097 0.737636
vt 0.375000 0.980952
vt 0.127493 0.739837
vt 0.135163 0.502493
vt 0.137364 0.521097
vt 0.375000 0.230742
vt 0.353903 0.512364
vt 0.375000 0.480742
vt 0.364837 0.747507
vt 0.362636 0.728903
vt 0.375000 0.230313
vt 0.375000 0.480313
vt 0.375000 0.980313
s 1
f 90/1/90 22/2/22 30/3/30
f 122/4/122 54/5/54 62/6/62
f 10/7/10 69/8/69 77/9/77
f 21/10/21 5/11/5 37/12/37
f 85/13/85 26/14/26 18/15/18
f 6/16/6 73/17/73 66/18/66
f 18/19/18 114/20/114 85/13/85
f 14/21/14 77/9/77 73/22/73
f 94/23/94 30/24/30 26/25/26
f 110/26/110 46/27/46 42/28/42
f 106/29/106 38/30/38 46/31/46
f 117/32/117 58/33/58 50/34/50
f 50/35/50 98/36/98 117/32/117
f 126/37/126 62/6/62 58/38/58
f 101/39/101 42/40/42 34/41/34
f 34/42/34 66/18/66 101/39/101
f 13/43/13 7/44/7 5/11/5
f 15/45/15 8/46/8 7/44/7
f 16/47/16 6/16/6 8/48/8
f 13/43/13 11/49/11 15/45/15
f 11/49/11 16/50/16 15/45/15
f 12/51/12 14/21/14 16/52/16
f 9/53/9 3/54/3 11/49/11
f 11/49/11 4/55/4 12/56/12
f 12/57/12 2/58/2 10/7/10
f 25/59/25 19/60/19 27/61/27
f 27/61/27 20/62/20 28/63/28
f 28/64/28 18/15/18 26/14/26
f 29/65/29 27/61/27 31/66/31
f 27/61/27 32/67/32 31/66/31
f 28/68/28 30/24/30 32/69/32
f 29/65/29 23/70/23 21/10/21
f 31/66/31 24/71/24 23/70/23
f 32/72/32 22/2/22 24/73/24
f 57/74/57 51/75/51 59/76/59
f 59/76/59 52/77/52 60/78/60
f 60/78/60 50/34/50 58/33/58
f 61/79/61 59/76/59 63/80/63
f 59/76/59 64/81/64 63/80/63
f 60/82/60 62/6/62 64/83/64
f 61/79/61 55/84/55 53/85/53
f 63/80/63 56/86/56 55/84/55
f 64/87/64 54/5/54 56/88/56
f 41/89/41 35/90/35 43/91/43
f 43/91/43 36/92/36 44/93/44
f 44/94/44 34/41/34 42/40/42
f 45/95/45 43/91/43 47/96/47
f 43/91/43 48/97/48 47/96/47
f 44/98/44 46/27/46 48/99/48
f 45/95/45 39/100/39 37/12/37
f 47/96/47 40/101/40 39/100/39
f 48/102/48 38/30/38 40/101/40
f 21/10/21 3/54/3 1/103/1
f 23/70/23 4/104/4 3/54/3
f 24/105/24 2/106/2 4/107/4
f 5/11/5 35/90/35 33/108/33
f 7/44/7 36/109/36 35/90/35
f 8/110/8 34/42/34 36/111/36
f 50/35/50 40/101/40 38/30/38
f 52/77/52 39/100/39 40/101/40
f 51/75/51 37/12/37 39/100/39
f 18/19/18 56/112/56 54/113/54
f 20/114/20 55/84/55 56/115/56
f 19/60/19 53/85/53 55/84/55
f 2/106/2 82/116/82 69/8/69
f 74/117/74 67/118/67 76/119/76
f 76/119/76 68/120/68 75/121/75
f 75/122/75 66/18/66 73/17/73
f 74/117/74 80/123/80 78/124/78
f 80/123/80 75/125/75 79/126/79
f 75/127/75 77/9/77 79/128/79
f 78/124/78 72/129/72 70/130/70
f 80/123/80 71/131/71 72/129/72
f 79/132/79 69/8/69 71/133/71
f 93/134/93 88/135/88 86/136/86
f 95/137/95 87/138/87 88/135/88
f 96/139/96 85/13/85 87/140/87
f 89/141/89 95/137/95 93/134/93
f 95/137/95 92/142/92 96/143/96
f 92/144/92 94/23/94 96/145/96
f 89/141/89 83/146/83 91/147/91
f 91/147/91 84/148/84 92/149/92
f 92/150/92 82/151/82 90/1/90
f 125/152/125 120/153/120 118/154/118
f 127/155/127 119/156/119 120/153/120
f 128/157/128 117/32/117 119/156/119
f 121/158/121 127/155/127 125/152/125
f 127/155/127 124/159/124 128/160/128
f 124/161/124 126/37/126 128/162/128
f 121/158/121 115/163/115 123/164/123
f 123/164/123 116/165/116 124/166/124
f 124/167/124 114/20/114 122/4/122
f 109/168/109 104/169/104 102/170/102
f 111/171/111 103/172/103 104/169/104
f 112/173/112 101/39/101 103/174/103
f 105/175/105 111/171/111 109/168/109
f 111/171/111 108/176/108 112/177/112
f 108/178/108 110/26/110 112/179/112
f 105/175/105 99/180/99 107/181/107
f 107/181/107 100/182/100 108/183/108
f 108/183/108 98/36/98 106/29/106
f 82/116/82 71/184/71 69/8/69
f 84/185/84 72/129/72 71/186/71
f 83/146/83 70/130/70 72/129/72
f 114/20/114 87/187/87 85/13/85
f 116/188/116 88/135/88 87/189/87
f 115/163/115 86/136/86 88/135/88
f 98/36/98 119/156/119 117/32/117
f 100/182/100 120/153/120 119/156/119
f 99/180/99 118/154/118 120/153/120
f 66/18/66 103/190/103 101/39/101
f 68/191/68 104/169/104 103/192/103
f 67/118/67 102/170/102 104/169/104
f 118/154/118 102/170/102 70/130/70
f 90/1/90 82/151/82 22/2/22
f 122/4/122 114/20/114 54/5/54
f 10/7/10 2/58/2 69/8/69
f 37/12/37 49/193/49 53/85/53
f 49/193/49 57/74/57 53/85/53
f 57/74/57 61/79/61 53/85/53
f 53/85/53 17/194/17 21/10/21
f 17/194/17 25/59/25 21/10/21
f 25/59/25 29/65/29 21/10/21
f 21/10/21 1/103/1 5/11/5
f 1/103/1 9/53/9 5/11/5
f 9/53/9 13/43/13 5/11/5
f 5/11/5 33/108/33 37/12/37
f 33/108/33 41/89/41 37/12/37
f 41/89/41 45/95/45 37/12/37
f 37/12/37 53/85/53 21/10/21
f 85/13/85 94/23/94 26/14/26
f 6/16/6 14/195/14 73/17/73
f 18/19/18 54/113/54 114/20/114
f 14/21/14 10/196/10 77/9/77
f 94/23/94 90/1/90 30/24/30
f 110/26/110 106/29/106 46/27/46
f 106/29/106 98/36/98 38/30/38
f 117/32/117 126/37/126 58/33/58
f 50/35/50 38/30/38 98/36/98
f 126/37/126 122/4/122 62/6/62
f 101/39/101 110/26/110 42/40/42
f 34/42/34 6/16/6 66/18/66
f 13/43/13 15/45/15 7/44/7
f 15/45/15 16/197/16 8/46/8
f 16/47/16 14/195/14 6/16/6
f 13/43/13 9/53/9 11/49/11
f 11/49/11 12/198/12 16/50/16
f 12/51/12 10/196/10 14/21/14
f 9/53/9 1/103/1 3/54/3
f 11/49/11 3/54/3 4/55/4
f 12/57/12 4/199/4 2/58/2
f 25/59/25 17/194/17 19/60/19
f 27/61/27 19/60/19 20/62/20
f 28/64/28 20/200/20 18/15/18
f 29/65/29 25/59/25 27/61/27
f 27/61/27 28/201/28 32/67/32
f 28/68/28 26/25/26 30/24/30
f 29/65/29 31/66/31 23/70/23
f 31/66/31 32/202/32 24/71/24
f 32/72/32 30/3/30 22/2/22
f 57/74/57 49/193/49 51/75/51
f 59/76/59 51/75/51 52/77/52
f 60/78/60 52/77/52 50/34/50
f 61/79/61 57/74/57 59/76/59
f 59/76/59 60/203/60 64/81/64
f 60/82/60 58/38/58 62/6/62
f 61/79/61 63/80/63 55/84/55
f 63/80/63 64/204/64 56/86/56
f 64/87/64 62/6/62 54/5/54
f 41/89/41 33/108/33 35/90/35
f 43/91/43 35/90/35 36/92/36
f 44/94/44 36/205/36 34/41/34
f 45/95/45 41/89/41 43/91/43
f 43/91/43 44/206/44 48/97/48
f 44/98/44 42/28/42 46/27/46
f 45/95/45 47/96/47 39/100/39
f 47/96/47 48/102/48 40/101/40
f 48/102/48 46/31/46 38/30/38
f 21/10/21 23/70/23 3/54/3
f 23/70/23 24/207/24 4/104/4
f 24/105/24 22/208/22 2/106/2
f 5/11/5 7/44/7 35/90/35
f 7/44/7 8/209/8 36/109/36
f 8/110/8 6/16/6 34/42/34
f 50/35/50 52/77/52 40/101/40
f 52/77/52 51/75/51 39/100/39
f 51/75/51 49/193/49 37/12/37
f 18/19/18 20/210/20 56/112/56
f 20/114/20 19/60/19 55/84/55
f 19/60/19 17/194/17 53/85/53
f 2/106/2 22/208/22 82/116/82
f 74/117/74 65/211/65 67/118/67
f 76/119/76 67/118/67 68/120/68
f 75/122/75 68/212/68 66/18/66
f 74/117/74 76/119/76 80/123/80
f 80/123/80 76/119/76 75/125/75
f 75/127/75 73/22/73 77/9/77
f 78/124/78 80/123/80 72/129/72
f 80/123/80 79/213/79 71/131/71
f 79/132/79 77/9/77 69/8/69
f 93/134/93 95/137/95 88/135/88
f 95/137/95 96/214/96 87/138/87
f 96/139/96 94/23/94 85/13/85
f 89/141/89 91/147/91 95/137/95
f 95/137/95 91/147/91 92/142/92
f 92/144/92 90/1/90 94/23/94
f 89/141/89 81/215/81 83/146/83
f 91/147/91 83/146/83 84/148/84
f 92/150/92 84/216/84 82/151/82
f 125/152/125 127/155/127 120/153/120
f 127/155/127 128/157/128 119/156/119
f 128/157/128 126/37/126 117/32/117
f 121/158/121 123/164/123 127/155/127
f 127/155/127 123/164/123 124/159/124
f 124/161/124 122/4/122 126/37/126
f 121/158/121 113/217/113 115/163/115
f 123/164/123 115/163/115 116/165/116
f 124/167/124 116/218/116 114/20/114
f 109/168/109 111/171/111 104/169/104
f 111/171/111 112/219/112 103/172/103
f 112/173/112 110/26/110 101/39/101
f 105/175/105 107/181/107 111/171/111
f 111/171/111 107/181/107 108/176/108
f 108/178/108 106/29/106 110/26/110
f 105/175/105 97/220/97 99/180/99
f 107/181/107 99/180/99 100/182/100
f 108/183/108 100/182/100 98/36/98
f 82/116/82 84/221/84 71/184/71
f 84/185/84 83/146/83 72/129/72
f 83/146/83 81/215/81 70/130/70
f 114/20/114 116/222/116 87/187/87
f 116/188/116 115/163/115 88/135/88
f 115/163/115 113/217/113 86/136/86
f 98/36/98 100/182/100 119/156/119
f 100/182/100 99/180/99 120/153/120
f 99/180/99 97/220/97 118/154/118
f 66/18/66 68/223/68 103/190/103
f 68/191/68 67/118/67 104/169/104
f 67/118/67 65/211/65 102/170/102
f 70/130/70 81/215/81 86/136/86
f 81/215/81 89/141/89 86/136/86
f 89/141/89 93/134/93 86/136/86
f 86/136/86 113/217/113 118/154/118
f 113/217/113 121/158/121 118/154/118
f 121/158/121 125/152/125 118/154/118
f 118/154/118 97/220/97 102/170/102
f 97/220/97 105/175/105 102/170/102
f 105/175/105 109/168/109 102/170/102
f 102/170/102 65/211/65 70/130/70
f 65/211/65 74/117/74 70/130/70
f 74/117/74 78/124/78 70/130/70
f 70/130/70 86/136/86 118/154/118
