{
	"asset":{
		"generator":"Khronos glTF Blender I/O v4.3.47",
		"version":"2.0"
	},
	"scene":0,
	"scenes":[
		{
			"name":"Scene",
			"nodes":[
				0,
				1
			]
		}
	],
	"nodes":[
		{
			"mesh":0,
			"name":"TentFrame",
			"translation":[
				0,
				0.013505879789590836,
				-0.7829209566116333
			]
		},
		{
			"mesh":1,
			"name":"TentBody",
			"translation":[
				0,
				0.013505879789590836,
				-0.7829209566116333
			]
		}
	],
	"meshes":[
		{
			"name":"model_0.001",
			"primitives":[
				{
					"attributes":{
						"POSITION":0,
						"NORMAL":1,
						"TEXCOORD_0":2
					},
					"indices":3
				}
			]
		},
		{
			"name":"model_0.004",
			"primitives":[
				{
					"attributes":{
						"POSITION":4,
						"NORMAL":5,
						"TEXCOORD_0":6
					},
					"indices":7
				}
			]
		}
	],
	"accessors":[
		{
			"bufferView":0,
			"componentType":5126,
			"count":8040,
			"max":[
				0.26052314043045044,
				0.2011687010526657,
				0.18370848894119263
			],
			"min":[
				-0.26052555441856384,
				-0.010162928141653538,
				-0.183708056807518
			],
			"type":"VEC3"
		},
		{
			"bufferView":1,
			"componentType":5126,
			"count":8040,
			"type":"VEC3"
		},
		{
			"bufferView":2,
			"componentType":5126,
			"count":8040,
			"type":"VEC2"
		},
		{
			"bufferView":3,
			"componentType":5123,
			"count":36486,
			"type":"SCALAR"
		},
		{
			"bufferView":4,
			"componentType":5126,
			"count":2764,
			"max":[
				0.24117158353328705,
				0.1956169605255127,
				0.16894517838954926
			],
			"min":[
				-0.2412485033273697,
				-0.0006207847036421299,
				-0.16895152628421783
			],
			"type":"VEC3"
		},
		{
			"bufferView":5,
			"componentType":5126,
			"count":2764,
			"type":"VEC3"
		},
		{
			"bufferView":6,
			"componentType":5126,
			"count":2764,
			"type":"VEC2"
		},
		{
			"bufferView":7,
			"componentType":5123,
			"count":13764,
			"type":"SCALAR"
		}
	],
	"bufferViews":[
		{
			"buffer":0,
			"byteLength":96480,
			"byteOffset":0,
			"target":34962
		},
		{
			"buffer":0,
			"byteLength":96480,
			"byteOffset":96480,
			"target":34962
		},
		{
			"buffer":0,
			"byteLength":64320,
			"byteOffset":192960,
			"target":34962
		},
		{
			"buffer":0,
			"byteLength":72972,
			"byteOffset":257280,
			"target":34963
		},
		{
			"buffer":0,
			"byteLength":33168,
			"byteOffset":330252,
			"target":34962
		},
		{
			"buffer":0,
			"byteLength":33168,
			"byteOffset":363420,
			"target":34962
		},
		{
			"buffer":0,
			"byteLength":22112,
			"byteOffset":396588,
			"target":34962
		},
		{
			"buffer":0,
			"byteLength":27528,
			"byteOffset":418700,
			"target":34963
		}
	],
	"buffers":[
		{
			"byteLength":446228,
			"uri":"SceneForRednerDemo.bin"
		}
	]
}
